# xmcd
#
# Track frame offsets:
#  150
#  15901
#  35496
#  62487
#  92211
#  115396
#  139617
#  171673
#  184822
#  205306
#  231033
#
# Disc length: 3351 seconds
#
# Revision: 0
# Processed by: cddbd v1.5.1PL0 Copyright (c) Steve Scherf et al.
# Submitted via: Collectorz.com Music Collector 6.9
#
DISCID=940d150b
DTITLE=Matt Schofield - Siftin' Thru Ashes
DYEAR=2005
DGENRE=Blues
TTITLE0=All You Need
TTITLE1=Siftin' Thru Ashes
TTITLE2=Djam
TTITLE3=Lights Are On, But Nobody's Home
TTITLE4=The Letter
TTITLE5=Back At Square One
TTITLE6=People Say
TTITLE7=How I Try
TTITLE8=On My Way
TTITLE9=Middle Ground
TTITLE10=Hard Lines
EXTD=
EXTT0=
EXTT1=
EXTT2=
EXTT3=
EXTT4=
EXTT5=
EXTT6=
EXTT7=
EXTT8=
EXTT9=
EXTT10=
PLAYORDER=
